<svg width="48" height="16" viewBox="0 0 48 16" fill="none" xmlns="http://www.w3.org/2000/svg">
<path d="M4.47958 13.0852C3.80569 13.0934 3.13354 13.015 2.47958 12.8522C2.03575 12.7439 1.62203 12.5371 1.26915 12.247C0.977513 11.997 0.765833 11.6668 0.660452 11.2974C0.548321 10.8873 0.494458 10.4634 0.50045 10.0383V0.4L3.3248 0V9.54087C3.3248 9.76348 3.34219 9.96174 3.38045 10.1391C3.41871 10.3165 3.49176 10.4661 3.59958 10.5878C3.70741 10.7096 3.86045 10.8104 4.06219 10.887C4.26741 10.967 4.53871 11.0157 4.87958 11.04L4.47958 13.0852ZM5.59262 8.6087C5.59262 7.82957 5.72828 7.1513 5.99958 6.56696C6.2474 6.0188 6.60628 5.52803 7.05351 5.1257C7.50075 4.72337 8.02661 4.41822 8.59784 4.22957C9.17175 4.02783 9.76306 3.93043 10.3683 3.93043C11.7839 3.93043 12.9004 4.30957 13.7213 5.07131C14.5457 5.82957 14.9561 6.94957 14.9561 8.42435C14.9507 8.73582 14.931 9.04687 14.897 9.35652H8.49349C8.52464 9.60892 8.61448 9.8505 8.75583 10.0619C8.89717 10.2733 9.08608 10.4487 9.30741 10.5739C9.78741 10.873 10.4309 11.0226 11.2413 11.0226C11.7596 11.0226 12.2674 10.9809 12.7648 10.8974C13.2657 10.8139 13.6726 10.7096 13.9891 10.5878L14.3683 12.6052C14.2152 12.6713 14.0135 12.7374 13.7596 12.8035C12.81 13.0285 11.838 13.1451 10.8622 13.1513C10.0679 13.1679 9.27648 13.0503 8.52132 12.8035C7.91161 12.6019 7.35026 12.2762 6.87263 11.847C6.44189 11.4494 6.11066 10.9561 5.90567 10.407C5.69697 9.85043 5.59262 9.25217 5.59262 8.6087ZM12.2257 7.65913C12.2134 7.44932 12.1724 7.24218 12.1039 7.04348C12.0361 6.84466 11.9257 6.66305 11.7804 6.5113C11.605 6.32643 11.3908 6.18256 11.1533 6.08997C10.9158 5.99738 10.6609 5.95835 10.4065 5.97565C10.09 5.97565 9.81871 6.02435 9.59262 6.11826C9.38547 6.2011 9.1971 6.32478 9.03875 6.48194C8.88039 6.6391 8.75529 6.82652 8.67089 7.03304C8.59007 7.23498 8.53061 7.44482 8.49349 7.65913H12.2257ZM22.0657 6.36174C21.7699 6.2976 21.473 6.23846 21.1752 6.18435C20.6015 6.08995 20.0177 6.07357 19.4396 6.13565C19.1926 6.16348 19.0083 6.19478 18.8796 6.22609V12.9183H16.0587V4.62957C16.0587 4.62957 17.1613 4.32696 17.8465 4.18783C18.7873 4.00963 19.7463 3.94772 20.7022 4.00348C21.1335 4.03908 21.563 4.0948 21.9891 4.17044C22.2048 4.2087 22.3857 4.25739 22.5387 4.31304L22.0657 6.36174ZM29.6935 8.6087C29.6935 7.84348 29.4952 7.22783 29.1057 6.7687C28.7126 6.30609 28.1318 6.07652 27.3596 6.07652C26.9476 6.07235 26.5359 6.10026 26.1283 6.16V10.64C26.6142 10.8703 27.1454 10.9891 27.6831 10.9878C29.0222 10.9878 29.6935 10.1948 29.6935 8.6087ZM32.5735 8.54261C32.5735 9.21739 32.4796 9.83304 32.2883 10.3896C32.1197 10.9219 31.835 11.4101 31.4549 11.8192C31.0748 12.2282 30.6086 12.5477 30.09 12.7548C29.5474 12.9739 28.9213 13.0852 28.2152 13.0852C27.8222 13.0852 27.457 13.0539 27.1126 12.9878C26.7718 12.9183 26.4448 12.8243 26.1283 12.7026V16H23.3039V4.46261C23.9317 4.30752 24.5682 4.19021 25.21 4.1113C25.5683 4.06957 25.937 4.0313 26.3091 4.00348C26.6813 3.97565 27.0396 3.96174 27.3805 3.96174C28.2013 3.96174 28.9352 4.06957 29.5787 4.2887C30.1779 4.47981 30.7318 4.79107 31.2065 5.20348C31.6523 5.59809 32.0001 6.09112 32.2222 6.64348C32.4628 7.24734 32.5821 7.89265 32.5735 8.54261ZM37.8118 11.1896C38.09 11.1896 38.3544 11.1826 38.6083 11.1722C38.8587 11.1617 39.0639 11.1443 39.2135 11.1235V9.24174C38.8386 9.17057 38.4576 9.13678 38.0761 9.14087C37.8118 9.14087 37.5613 9.15478 37.3283 9.18261C37.0952 9.21044 36.89 9.26261 36.7126 9.33913C36.5352 9.41913 36.3961 9.52348 36.2952 9.65565C36.1944 9.7913 36.1422 9.95478 36.1422 10.1565C36.1422 10.5461 36.2918 10.8139 36.5874 10.9635C36.8865 11.113 37.2935 11.1896 37.8118 11.1896ZM37.5857 3.93043C38.417 3.93043 39.1126 4.01391 39.6691 4.17739C40.1633 4.31092 40.6203 4.55605 41.0048 4.89391C41.3387 5.20696 41.5752 5.58261 41.7144 6.02783C41.8535 6.46957 41.9231 6.96348 41.9231 7.50957V12.6713C41.5196 12.7478 40.9561 12.8383 40.2361 12.9461C39.5161 13.0504 38.6465 13.1026 37.6205 13.1026C36.977 13.1026 36.3926 13.0539 35.8674 12.953C35.3914 12.8691 34.9336 12.7032 34.5144 12.4626C34.1494 12.2487 33.848 11.9413 33.6413 11.5722C33.4282 11.1551 33.3241 10.6908 33.3387 10.2226C33.3244 9.77906 33.4381 9.34076 33.6664 8.96016C33.8946 8.57957 34.2276 8.27279 34.6257 8.07652C35.0477 7.85433 35.5019 7.69942 35.9718 7.61739C36.4796 7.52348 37.0013 7.47478 37.5474 7.47478C37.9126 7.47478 38.2396 7.4887 38.5213 7.51652C38.8065 7.54435 39.0361 7.58261 39.2135 7.62435V7.3913C39.2135 6.97043 39.0674 6.63304 38.7787 6.37565C38.4865 6.12174 37.9822 5.99304 37.2622 5.99304C36.7822 5.99304 36.3092 6.02435 35.8396 6.08696C35.3735 6.14609 34.97 6.23304 34.6257 6.34435L34.2674 4.34435C34.7353 4.22248 35.2104 4.1307 35.69 4.06957C35.9787 4.0313 36.2848 4 36.6083 3.97217C36.9318 3.94435 37.2552 3.93043 37.5857 3.93043ZM47.457 11.04C47.1796 11.0293 46.9054 10.9777 46.6431 10.887C46.4659 10.8263 46.306 10.7237 46.177 10.5878C46.0659 10.4605 45.9914 10.3054 45.9613 10.1391C45.9205 9.94237 45.9006 9.74182 45.9022 9.54087V0L43.0778 0.4V10.0383C43.0778 10.5043 43.1335 10.9252 43.2413 11.2974C43.3457 11.6696 43.5509 11.9861 43.8465 12.247C44.2007 12.5371 44.6156 12.744 45.0604 12.8522C45.5718 12.9983 46.2361 13.0748 47.0604 13.0852L47.457 11.04Z" fill="#EC5000"/>
</svg>
